<svg width="17" height="17" viewBox="0 0 17 17" fill="none" xmlns="http://www.w3.org/2000/svg">
<path d="M16.5086 8.12501L8.75001 0.366412C8.63435 0.249834 8.49668 0.157407 8.34499 0.0945056C8.1933 0.0316038 8.03063 -0.000518312 7.86641 6.32418e-06H0.625006C0.459246 6.32418e-06 0.300275 0.0658545 0.183065 0.183065C0.0658545 0.300275 6.32418e-06 0.459246 6.32418e-06 0.625006V7.86641C-0.000518312 8.03063 0.0316038 8.1933 0.0945056 8.34499C0.157407 8.49668 0.249834 8.63435 0.366412 8.75001L8.12501 16.5086C8.24108 16.6247 8.3789 16.7168 8.53057 16.7796C8.68225 16.8425 8.84481 16.8748 9.00899 16.8748C9.17317 16.8748 9.33574 16.8425 9.48741 16.7796C9.63909 16.7168 9.7769 16.6247 9.89298 16.5086L16.5086 9.89298C16.6247 9.7769 16.7168 9.63909 16.7796 9.48741C16.8425 9.33574 16.8748 9.17317 16.8748 9.00899C16.8748 8.84481 16.8425 8.68225 16.7796 8.53057C16.7168 8.3789 16.6247 8.24108 16.5086 8.12501ZM9.0086 15.625L1.25001 7.86641V1.25001H7.86641L15.625 9.0086L9.0086 15.625ZM5.00001 4.06251C5.00001 4.24793 4.94502 4.42918 4.84201 4.58335C4.739 4.73752 4.59258 4.85769 4.42127 4.92864C4.24997 4.9996 4.06147 5.01817 3.87961 4.98199C3.69775 4.94582 3.53071 4.85653 3.39959 4.72542C3.26848 4.59431 3.17919 4.42726 3.14302 4.2454C3.10685 4.06355 3.12541 3.87505 3.19637 3.70374C3.26733 3.53243 3.38749 3.38602 3.54166 3.283C3.69583 3.17999 3.87709 3.12501 4.06251 3.12501C4.31115 3.12501 4.5496 3.22378 4.72542 3.39959C4.90123 3.57541 5.00001 3.81387 5.00001 4.06251Z" fill="#7A7B9F"/>
</svg>
