<svg width="17" height="17" viewBox="0 0 17 17" fill="none" xmlns="http://www.w3.org/2000/svg">
<path d="M16.0569 4.54763C15.9835 4.47863 15.8945 4.42838 15.7975 4.40118C15.7006 4.37397 15.5984 4.37061 15.4999 4.39138C15.3785 3.95511 15.1721 3.54712 14.8926 3.19084C14.6131 2.83457 14.266 2.53703 13.8711 2.31532C13.4763 2.09362 13.0415 1.95211 12.5918 1.89893C12.1421 1.84575 11.6863 1.88195 11.2506 2.00545C10.9764 1.40706 10.5362 0.899985 9.98221 0.544483C9.42825 0.188981 8.78386 0 8.12564 0C7.46742 0 6.82303 0.188981 6.26907 0.544483C5.71511 0.899985 5.27486 1.40706 5.00064 2.00545C4.56507 1.88179 4.10937 1.8454 3.6597 1.89837C3.21003 1.95134 2.77525 2.09262 2.38034 2.31411C1.98543 2.53559 1.63816 2.83291 1.35849 3.18899C1.07882 3.54507 0.872247 3.95289 0.750642 4.38904C0.647971 4.36797 0.54165 4.37306 0.44146 4.40384C0.341271 4.43462 0.250431 4.4901 0.177297 4.56518C0.104164 4.64025 0.0510855 4.73252 0.0229462 4.83348C-0.00519307 4.93444 -0.0074899 5.04086 0.0162669 5.14295L2.40377 15.2867C2.46839 15.5609 2.62378 15.8053 2.84472 15.9802C3.06566 16.155 3.3392 16.2501 3.62095 16.25H12.6303C12.9121 16.2501 13.1856 16.155 13.4066 15.9802C13.6275 15.8053 13.7829 15.5609 13.8475 15.2867L16.2342 5.14295C16.2591 5.03687 16.2559 4.92612 16.2248 4.8217C16.1936 4.71727 16.1358 4.62279 16.0569 4.54763ZM4.06314 3.12498C4.42034 3.12398 4.77223 3.21148 5.08736 3.37966C5.17244 3.42479 5.26679 3.44965 5.36306 3.45229C5.45932 3.45494 5.5549 3.4353 5.64233 3.39492C5.72975 3.35453 5.80666 3.29449 5.86706 3.21948C5.92745 3.14446 5.96969 3.05651 5.99048 2.96248C6.09867 2.47687 6.36915 2.04265 6.75732 1.73144C7.14548 1.42024 7.62813 1.25065 8.12564 1.25065C8.62315 1.25065 9.1058 1.42024 9.49397 1.73144C9.88213 2.04265 10.1526 2.47687 10.2608 2.96248C10.2816 3.05651 10.3238 3.14446 10.3842 3.21948C10.4446 3.29449 10.5215 3.35453 10.609 3.39492C10.6964 3.4353 10.792 3.45494 10.8882 3.45229C10.9845 3.44965 11.0788 3.42479 11.1639 3.37966C11.4532 3.22621 11.7733 3.13966 12.1005 3.12641C12.4277 3.11317 12.7537 3.17356 13.0545 3.30313C13.3553 3.4327 13.6231 3.62815 13.8382 3.87505C14.0534 4.12195 14.2103 4.414 14.2975 4.72966L11.285 5.58904L8.59048 4.51091C8.29257 4.3918 7.96027 4.3918 7.66236 4.51091L4.96705 5.5906L1.95377 4.72966C2.08132 4.26822 2.35673 3.86136 2.73776 3.57149C3.11879 3.28163 3.58439 3.12477 4.06314 3.12498ZM3.62095 15L1.47799 5.89373L4.43502 6.73826L5.53658 15H3.62095ZM9.45377 15H6.79752L5.68424 6.64998L8.12564 5.67341L10.567 6.64998L9.45377 15ZM12.6303 15H10.7147L11.8163 6.73826L14.7733 5.89373L12.6303 15Z" fill="#A85FDD"/>
</svg>
