<svg width="61" height="40" viewBox="0 0 61 40" fill="none" xmlns="http://www.w3.org/2000/svg">
<path d="M0 25.882C0 18.085 6.32067 11.7643 14.1176 11.7643C21.9146 11.7643 28.2353 18.085 28.2353 25.882V33.7251C28.2353 37.1904 25.4261 39.9996 21.9608 39.9996H14.1176C6.32067 39.9996 0 33.6789 0 25.882Z" fill="url(#paint0_linear_5113_266)"/>
<path d="M31.763 7.05884C31.763 3.16034 34.9234 0 38.8218 0C42.7203 0 45.8809 3.16034 45.8809 7.0588V8.0092C45.8809 9.87631 47.0729 11.535 48.8427 12.1302L50.848 12.8047C56.3156 14.6436 59.9982 19.768 59.9982 25.5364V25.9676C59.9982 33.7175 53.716 40 45.9658 40H38.0375C34.5722 40 31.763 37.1908 31.763 33.7255V7.05884Z" fill="url(#paint1_linear_5113_266)"/>
<path d="M57.8253 5.09089C57.3453 5.09089 56.9093 4.98129 56.5164 4.76204C56.1324 4.53404 55.8271 4.22708 55.6004 3.8412C55.3822 3.45533 55.2733 3.02122 55.2733 2.53888C55.2733 2.05653 55.3867 1.62681 55.6133 1.24971C55.8404 0.863831 56.1458 0.561271 56.5298 0.342025C56.9133 0.114008 57.3453 0 57.8253 0C58.3049 0 58.7369 0.114008 59.1209 0.342025C59.5049 0.561271 59.8058 0.863831 60.024 1.24971C60.2507 1.62681 60.364 2.05653 60.364 2.53888C60.364 3.02122 60.2507 3.45533 60.024 3.8412C59.8058 4.22708 59.5049 4.53404 59.1209 4.76204C58.7458 4.98129 58.3138 5.09089 57.8253 5.09089ZM57.8253 4.72258C58.2351 4.72258 58.6018 4.63049 58.9244 4.44631C59.256 4.25339 59.5133 3.99029 59.6969 3.65704C59.8884 3.32378 59.9844 2.95106 59.9844 2.53888C59.9844 2.12669 59.8884 1.75836 59.6969 1.43388C59.5133 1.10062 59.256 0.841907 58.9244 0.657742C58.6018 0.464804 58.2351 0.368335 57.8253 0.368335C57.4151 0.368335 57.0444 0.464804 56.7129 0.657742C56.3898 0.841907 56.1324 1.10062 55.9404 1.43388C55.7573 1.75836 55.6658 2.12669 55.6658 2.53888C55.6658 2.95106 55.7573 3.32378 55.9404 3.65704C56.1324 3.99029 56.3898 4.25339 56.7129 4.44631C57.0444 4.63049 57.4151 4.72258 57.8253 4.72258ZM57.2884 3.93328H56.8831V1.09185H57.9036C58.2089 1.09185 58.4533 1.17078 58.6364 1.32864C58.82 1.47772 58.9115 1.6882 58.9115 1.96007C58.9115 2.14423 58.8636 2.30648 58.7676 2.4468C58.6716 2.58711 58.5231 2.69235 58.3227 2.76251L58.964 3.93328H58.5058L57.9298 2.85459H57.2884V3.93328ZM58.4795 1.97322C58.4795 1.63996 58.2831 1.47334 57.8907 1.47334H57.2884V2.4731H57.8907C58.0738 2.4731 58.2178 2.43364 58.3227 2.35471C58.4271 2.26701 58.4795 2.13985 58.4795 1.97322Z" fill="url(#paint2_linear_5113_266)"/>
<defs>
<linearGradient id="paint0_linear_5113_266" x1="30.2222" y1="0" x2="30.2222" y2="40" gradientUnits="userSpaceOnUse">
<stop stop-color="#D743C8"/>
<stop offset="1" stop-color="#7435DB"/>
</linearGradient>
<linearGradient id="paint1_linear_5113_266" x1="30.2222" y1="0" x2="30.2222" y2="40" gradientUnits="userSpaceOnUse">
<stop stop-color="#D743C8"/>
<stop offset="1" stop-color="#7435DB"/>
</linearGradient>
<linearGradient id="paint2_linear_5113_266" x1="30.2222" y1="0" x2="30.2222" y2="40" gradientUnits="userSpaceOnUse">
<stop stop-color="#D743C8"/>
<stop offset="1" stop-color="#7435DB"/>
</linearGradient>
</defs>
</svg>
