<svg width="16" height="15" viewBox="0 0 16 15" fill="none" xmlns="http://www.w3.org/2000/svg">
<path d="M15.0009 6.24918H6.10166L14.5321 4.0234C14.6119 4.00238 14.6868 3.96575 14.7523 3.91565C14.8179 3.86555 14.8729 3.80296 14.9142 3.73148C14.9554 3.66001 14.9821 3.58108 14.9927 3.49924C15.0033 3.4174 14.9976 3.33427 14.9759 3.25465L14.3384 0.910903C14.2506 0.59558 14.0422 0.327516 13.7582 0.164766C13.4743 0.00201685 13.1376 -0.0423152 12.8212 0.0413715L0.923534 3.182C0.765118 3.22312 0.616498 3.29543 0.486375 3.3947C0.356251 3.49397 0.247239 3.6182 0.165721 3.76012C0.0837472 3.9003 0.0307858 4.05553 0.00998349 4.21658C-0.0108188 4.37763 0.000962419 4.54121 0.0446272 4.69762L0.625877 6.83981C0.625877 6.85075 0.625877 6.86247 0.625877 6.87418V13.7492C0.625877 14.0807 0.757573 14.3986 0.991994 14.6331C1.22641 14.8675 1.54436 14.9992 1.87588 14.9992H14.3759C14.7074 14.9992 15.0253 14.8675 15.2598 14.6331C15.4942 14.3986 15.6259 14.0807 15.6259 13.7492V6.87418C15.6259 6.70842 15.56 6.54945 15.4428 6.43224C15.3256 6.31503 15.1666 6.24918 15.0009 6.24918ZM13.1384 1.24918L13.6071 2.9734L11.8399 3.44215L9.64306 2.1734L13.1384 1.24918ZM7.92822 2.62418L10.1251 3.89293L7.23916 4.65465L5.04228 3.38747L7.92822 2.62418ZM1.7251 6.11012L1.25635 4.38512L3.32666 3.83825L5.52353 5.10856L1.7251 6.11012ZM14.3759 13.7492H1.87588V7.49918H14.3759V13.7492Z" fill="#7A7B9F"/>
</svg>
