<svg width="14" height="14" viewBox="0 0 14 14" fill="none" xmlns="http://www.w3.org/2000/svg">
<path d="M13.6392 6.17741L10.8267 8.60429L11.6836 12.2337C11.7308 12.4307 11.7187 12.6373 11.6486 12.8274C11.5785 13.0175 11.4536 13.1826 11.2898 13.3018C11.1259 13.4209 10.9304 13.4889 10.728 13.497C10.5255 13.5051 10.3252 13.4531 10.1523 13.3474L6.99605 11.4049L3.83793 13.3474C3.66507 13.4525 3.46499 13.504 3.26289 13.4956C3.06079 13.4872 2.8657 13.4191 2.70218 13.3001C2.53867 13.181 2.41404 13.0162 2.344 12.8264C2.27395 12.6367 2.26162 12.4304 2.30855 12.2337L3.16855 8.60429L0.356055 6.17741C0.203116 6.04523 0.0925079 5.87092 0.0380438 5.67626C-0.0164202 5.48159 -0.0123263 5.27519 0.0498142 5.08283C0.111955 4.89048 0.229388 4.72069 0.387448 4.59468C0.545508 4.46867 0.73719 4.39201 0.938555 4.37429L4.62605 4.07679L6.04855 0.634288C6.12555 0.446674 6.2566 0.286193 6.42504 0.173249C6.59347 0.0603055 6.79169 0 6.99449 0C7.19729 0 7.39551 0.0603055 7.56395 0.173249C7.73238 0.286193 7.86343 0.446674 7.94043 0.634288L9.3623 4.07679L13.0498 4.37429C13.2516 4.39135 13.4438 4.46758 13.6024 4.59342C13.7611 4.71926 13.8791 4.88911 13.9416 5.0817C14.0041 5.27429 14.0084 5.48105 13.9539 5.67607C13.8995 5.87109 13.7887 6.04571 13.6354 6.17804L13.6392 6.17741Z" fill="#E4E5EC"/>
</svg>
