<svg width="30" height="30" viewBox="0 0 30 30" fill="none" xmlns="http://www.w3.org/2000/svg">
<path d="M30 18.751V28.751C30 29.0825 29.8683 29.4004 29.6339 29.6349C29.3995 29.8693 29.0815 30.001 28.75 30.001H1.25C0.918479 30.001 0.600537 29.8693 0.366117 29.6349C0.131696 29.4004 0 29.0825 0 28.751V18.751C0 18.4195 0.131696 18.1015 0.366117 17.8671C0.600537 17.6327 0.918479 17.501 1.25 17.501C1.58152 17.501 1.89946 17.6327 2.13388 17.8671C2.3683 18.1015 2.5 18.4195 2.5 18.751V27.501H27.5V18.751C27.5 18.4195 27.6317 18.1015 27.8661 17.8671C28.1005 17.6327 28.4185 17.501 28.75 17.501C29.0815 17.501 29.3995 17.6327 29.6339 17.8671C29.8683 18.1015 30 18.4195 30 18.751ZM9.63438 8.38536L13.75 4.26817V18.751C13.75 19.0825 13.8817 19.4004 14.1161 19.6349C14.3505 19.8693 14.6685 20.001 15 20.001C15.3315 20.001 15.6495 19.8693 15.8839 19.6349C16.1183 19.4004 16.25 19.0825 16.25 18.751V4.26817L20.3656 8.38536C20.6002 8.61991 20.9183 8.75168 21.25 8.75168C21.5817 8.75168 21.8998 8.61991 22.1344 8.38536C22.3689 8.15081 22.5007 7.83269 22.5007 7.50098C22.5007 7.16928 22.3689 6.85116 22.1344 6.61661L15.8844 0.366608C15.7683 0.250388 15.6304 0.158189 15.4787 0.0952834C15.3269 0.032378 15.1643 0 15 0C14.8357 0 14.6731 0.032378 14.5213 0.0952834C14.3696 0.158189 14.2317 0.250388 14.1156 0.366608L7.86562 6.61661C7.63107 6.85116 7.4993 7.16928 7.4993 7.50098C7.49931 7.83269 7.63107 8.15081 7.86562 8.38536C8.10017 8.61991 8.41829 8.75168 8.75 8.75168C9.08171 8.75168 9.39983 8.61991 9.63438 8.38536Z" fill="#A85FDD"/>
</svg>
